# xmcd
#
# Track frame offsets:
#	150
#	12423
#	23946
#	35694
#	46692
#	59115
#	68688
#	80511
#	93159
#	105132
#	118830
#	131103
#	142476
#	154824
#	169197
#	182295
#	192243
#	205566
#	215514
#	229362
#	243585
#	256008
#	270381
#	281304
#	295527
#
# Disc length: 4113 seconds
#
# Revision: 0
# Processed by: cddbd v1.5.2PL0 Copyright (c) Steve Scherf et al.
# Submitted via: audiograbber 1.83.01
#
DISCID=63100f19
DTITLE=Various Artist - Memories Are Made Of This Disk 2
DYEAR=1900
DGENRE=Country
TTITLE0=Patti Page - How Much Is That Doggie In The Window
TTITLE1=Marty Robbins - A White Sport Coat (And A Pink Carnation)
TTITLE2=Don Cherry - Fourteen Karat Gold
TTITLE3=Rosemary Clooney - This Ole House
TTITLE4=Dean Martin - Return To Me
TTITLE5=Doris Day - Whatever Will Be, Will Be
TTITLE6=Don Cherry - Band Of Gold
TTITLE7=The Crew Cuts - Sh-Boom
TTITLE8=Theresa Brewer - Silver Dollar
TTITLE9=Bobby Helms - My Special Angel
TTITLE10=Johnny Ray - Just Walking In The Rain
TTITLE11=Lonnie Donegan and His Skiffle Group - Rock Island Line
TTITLE12=Frankie Lane - High Noon (Do Not Foresake Me)
TTITLE13=Eddie Fisher - Oh My Papa
TTITLE14=Jo Stafford - Shrimp Boats
TTITLE15=Billy Vaughn - Sail Along The Silvery Moon
TTITLE16=Eartha Kitt - Just An Old Fashioned Girl
TTITLE17=Georgia Gibbs - Seven Lonely Days
TTITLE18=Eddie Fisher - Cindy, Oh Cindy
TTITLE19=Ray Starr - Wheel Of Fortune
TTITLE20=Dan Rondo - White Silver Sands
TTITLE21=Dean Martin - That's Amore
TTITLE22=Jimmy Rodgers - Kisses Sweeter Then Wine
TTITLE23=Bing Crosby and Grace Kelly - True Love
TTITLE24=Dinah Shore - Sweet Violets
EXTD=
EXTT0=
EXTT1=
EXTT2=
EXTT3=
EXTT4=
EXTT5=
EXTT6=
EXTT7=
EXTT8=
EXTT9=
EXTT10=
EXTT11=
EXTT12=
EXTT13=
EXTT14=
EXTT15=
EXTT16=
EXTT17=
EXTT18=
EXTT19=
EXTT20=
EXTT21=
EXTT22=
EXTT23=
EXTT24=
PLAYORDER=
